<?xml version="1.0" encoding="UTF-8"?>
<svg width="512pt" height="512pt" viewBox="0 -11 512 511" xmlns="http://www.w3.org/2000/svg">
<g fill="#069">
<path d="m6.4883 159.68h109.75v330.21h-109.75z"/>
<path d="m62.09 0.5c-37.543 0-62.09 24.652-62.09 57.055 0 31.688 23.816 57.043 60.648 57.043h0.71484c38.277 0 62.098-25.355 62.098-57.043-0.71484-32.402-23.82-57.055-61.371-57.055z"/>
<path d="m385.64 151.93c-58.234 0-84.328 32.004-98.914 54.508v-46.758h-109.76v330.21h109.75v-184.4c0-9.8711 0.71484-19.727 3.6133-26.785 7.9336-19.715 25.992-40.137 56.312-40.137 39.715 0 55.602 30.281 55.602 74.672v176.65h109.75v-189.34c0-101.43-54.148-148.62-126.36-148.62z"/>
</g>
</svg>
