<?xml version="1.0" encoding="UTF-8"?>
<svg enable-background="new 0 0 512.883 512.883" version="1.1" viewBox="0 0 512.88 512.88" xml:space="preserve" xmlns="http://www.w3.org/2000/svg">
<path d="m256.44 0c-141.24 0-256 114.76-256 256 0 105.05 62.676 195.09 153.6 234.81-0.883-17.655 0-39.724 4.414-59.145 5.297-21.186 32.662-139.48 32.662-139.48s-7.945-16.772-7.945-40.607c0-37.959 22.069-66.207 49.434-66.207 22.952 0 34.428 17.655 34.428 38.841 0 22.952-15.007 58.262-22.952 90.924-6.179 27.366 13.241 49.434 40.607 49.434 48.552 0 81.214-62.676 81.214-135.94 0-56.497-37.959-97.986-106.81-97.986-77.683 0-126.23 58.262-126.23 122.7 0 22.069 6.179 37.959 16.772 50.317 4.414 5.297 5.297 7.945 3.531 14.124-0.883 4.414-4.414 15.89-5.297 20.303-1.766 6.179-7.062 8.828-13.241 6.179-36.193-15.007-52.083-53.848-52.083-97.986 0-72.386 60.91-159.78 182.73-159.78 97.986 0 162.43 70.621 162.43 146.54 0 100.63-55.614 175.67-137.71 175.67-27.366 0-53.848-15.007-62.676-31.779 0 0-15.007 59.145-17.655 70.621-5.297 19.421-15.89 39.724-25.6 54.731 22.952 7.062 47.669 10.593 72.386 10.593 141.24 0 256-114.76 256-256s-114.76-256.88-256-256.88" fill="#CB1F24"/>















</svg>
