<?xml version="1.0" encoding="UTF-8"?>
<svg width="511pt" height="511pt" viewBox="1 -47 512 511" xmlns="http://www.w3.org/2000/svg">
<path d="m161.02 416.61c193.22 0 298.88-160.07 298.88-298.88 0-4.5469-0.09375-9.0742-0.29688-13.578 20.508-14.828 38.336-33.332 52.398-54.395-18.82 8.3672-39.078 13.996-60.324 16.539 21.688-13.008 38.34-33.578 46.191-58.102-20.297 12.031-42.773 20.773-66.703 25.496-19.168-20.418-46.461-33.188-76.68-33.188-58.008 0-105.05 47.043-105.05 105.03 0 8.2461 0.92188 16.262 2.7227 23.953-87.305-4.3945-164.72-46.191-216.53-109.75-9.0195 15.523-14.223 33.559-14.223 52.801 0 36.441 18.547 68.617 46.746 87.438-17.234-0.53125-33.422-5.2617-47.574-13.137-0.015625 0.44141-0.015625 0.87109-0.015625 1.3398 0 50.875 36.207 93.352 84.277 102.98-8.8281 2.4023-18.117 3.6953-27.699 3.6953-6.7578 0-13.344-0.66406-19.746-1.8945 13.375 41.738 52.156 72.109 98.133 72.961-35.953 28.18-81.246 44.965-130.47 44.965-8.4688 0-16.836-0.48438-25.059-1.4531 46.488 29.797 101.7 47.188 161.02 47.188" fill="#1da1f2"/>
</svg>
