<?xml version="1.0" encoding="UTF-8"?>
<svg width="512pt" height="512pt" viewBox="0 -77 512 512" xmlns="http://www.w3.org/2000/svg">
<path d="m501.45 56.094c-5.9023-21.934-23.195-39.223-45.125-45.129-40.066-10.965-200.33-10.965-200.33-10.965s-160.26 0-200.33 10.547c-21.508 5.9023-39.223 23.617-45.125 45.547-10.543 40.062-10.543 123.15-10.543 123.15s0 83.504 10.543 123.15c5.9062 21.93 23.195 39.223 45.129 45.129 40.484 10.965 200.33 10.965 200.33 10.965s160.26 0 200.33-10.547c21.934-5.9023 39.223-23.195 45.129-45.125 10.543-40.066 10.543-123.15 10.543-123.15s0.42188-83.508-10.547-123.57z" fill="#f00"/>
<path d="m204.97 256 133.27-76.758-133.27-76.758z" fill="#fff"/>
</svg>
