<svg width="0" height="0" class="hidden">
  <symbol viewBox="0 0 24 24" xmlns="http://www.w3.org/2000/svg" id="facebook">
    <path d="M15.997 3.985h2.191V.169C17.81.117 16.51 0 14.996 0 8.064 0 9.95 7.85 9.674 9H6.187v4.266h3.486V24h4.274V13.267h3.345l.531-4.266h-3.877c.188-2.824-.761-5.016 2.051-5.016z"></path>
  </symbol>
    <symbol viewBox="1 -47 512 511" xmlns="http://www.w3.org/2000/svg" id="twitter">
    <path d="M161.02 416.61c193.22 0 298.88-160.07 298.88-298.88 0-4.547-.094-9.074-.297-13.578a213.707 213.707 0 0 0 52.398-54.395c-18.82 8.367-39.078 13.996-60.324 16.539 21.688-13.008 38.34-33.578 46.191-58.102a210.753 210.753 0 0 1-66.703 25.496C411.997 13.272 384.705.502 354.485.502c-58.008 0-105.05 47.043-105.05 105.03 0 8.246.922 16.262 2.723 23.953-87.305-4.394-164.72-46.191-216.53-109.75a104.789 104.789 0 0 0-14.223 52.801c0 36.441 18.547 68.617 46.746 87.438a104.243 104.243 0 0 1-47.574-13.137c-.016.441-.016.871-.016 1.34 0 50.875 36.207 93.352 84.277 102.98a105.372 105.372 0 0 1-27.699 3.695 104.46 104.46 0 0 1-19.746-1.894c13.375 41.738 52.156 72.109 98.133 72.96-35.953 28.18-81.246 44.966-130.47 44.966-8.469 0-16.836-.485-25.059-1.454 46.488 29.797 101.7 47.188 161.02 47.188"
      ></path>
  </symbol>
  <symbol viewBox="0 -11 512 511" xmlns="http://www.w3.org/2000/svg" id="linkedin">
    <path d="M6.488 159.68h109.75v330.21H6.488zM62.09.5C24.547.5 0 25.152 0 57.555c0 31.688 23.816 57.043 60.648 57.043h.715c38.277 0 62.098-25.355 62.098-57.043C122.746 25.153 99.64.5 62.09.5zm323.55 151.43c-58.234 0-84.328 32.004-98.914 54.508V159.68h-109.76v330.21h109.75v-184.4c0-9.871.715-19.727 3.613-26.785 7.934-19.715 25.992-40.137 56.312-40.137 39.715 0 55.602 30.281 55.602 74.672v176.65h109.75V300.55c0-101.43-54.148-148.62-126.36-148.62z"
      ></path>
  </symbol>
    <symbol viewBox="0 -77 512 512" xmlns="http://www.w3.org/2000/svg" id="youtube">
    <path d="M501.45 56.094c-5.902-21.934-23.195-39.223-45.125-45.129C416.259 0 255.995 0 255.995 0S95.735 0 55.665 10.547C34.157 16.449 16.442 34.164 10.54 56.094-.003 96.156-.003 179.244-.003 179.244s0 83.504 10.543 123.15c5.906 21.93 23.195 39.223 45.129 45.129 40.484 10.965 200.33 10.965 200.33 10.965s160.26 0 200.33-10.547c21.934-5.902 39.223-23.195 45.129-45.125 10.543-40.066 10.543-123.15 10.543-123.15s.422-83.508-10.547-123.57z"
      ></path>
    <path d="M204.97 256l133.27-76.758-133.27-76.758z" fill="#232323"></path>
  </symbol>
  <symbol viewBox="0 0 512.88 512.88" xmlns="http://www.w3.org/2000/svg" id="pinterest">
    <path d="M256.44 0C115.2 0 .44 114.76.44 256c0 105.05 62.676 195.09 153.6 234.81-.883-17.655 0-39.724 4.414-59.145 5.297-21.186 32.662-139.48 32.662-139.48s-7.945-16.772-7.945-40.607c0-37.959 22.069-66.207 49.434-66.207 22.952 0 34.428 17.655 34.428 38.841 0 22.952-15.007 58.262-22.952 90.924-6.179 27.366 13.241 49.434 40.607 49.434 48.552 0 81.214-62.676 81.214-135.94 0-56.497-37.959-97.986-106.81-97.986-77.683 0-126.23 58.262-126.23 122.7 0 22.069 6.179 37.959 16.772 50.317 4.414 5.297 5.297 7.945 3.531 14.124-.883 4.414-4.414 15.89-5.297 20.303-1.766 6.179-7.062 8.828-13.241 6.179-36.193-15.007-52.083-53.848-52.083-97.986 0-72.386 60.91-159.78 182.73-159.78 97.986 0 162.43 70.621 162.43 146.54 0 100.63-55.614 175.67-137.71 175.67-27.366 0-53.848-15.007-62.676-31.779 0 0-15.007 59.145-17.655 70.621-5.297 19.421-15.89 39.724-25.6 54.731 22.952 7.062 47.669 10.593 72.386 10.593 141.24 0 256-114.76 256-256s-114.76-256.88-256-256.88"
      ></path>
  </symbol>
  <symbol aria-hidden="true" data-icon="quote-left" data-prefix="fas" viewBox="0 0 512 512" xmlns="http://www.w3.org/2000/svg" id="quote-left-solid">
    <path d="M464 256h-80v-64c0-35.3 28.7-64 64-64h8c13.3 0 24-10.7 24-24V56c0-13.3-10.7-24-24-24h-8c-88.4 0-160 71.6-160 160v240c0 26.5 21.5 48 48 48h128c26.5 0 48-21.5 48-48V304c0-26.5-21.5-48-48-48zm-288 0H96v-64c0-35.3 28.7-64 64-64h8c13.3 0 24-10.7 24-24V56c0-13.3-10.7-24-24-24h-8C71.6 32 0 103.6 0 192v240c0 26.5 21.5 48 48 48h128c26.5 0 48-21.5 48-48V304c0-26.5-21.5-48-48-48z"
      fill="#5474fd"></path>
  </symbol>
</svg>